<?xml version="1.0" encoding="utf-8"?>
<!-- Generator: Adobe Illustrator 26.0.2, SVG Export Plug-In . SVG Version: 6.00 Build 0)  -->
<svg version="1.1" id="Livello_1" xmlns="http://www.w3.org/2000/svg" xmlns:xlink="http://www.w3.org/1999/xlink" x="0px" y="0px"
	 viewBox="0 0 81.5 76.8" style="enable-background:new 0 0 81.5 76.8;" xml:space="preserve">
<style type="text/css">
	.st0{fill:#FFFFFF;}
</style>
<path class="st0" d="M80.6,61.4c-2.6,1-5.3,2-8,2.6c-1.4,0.3-2.1,0.8-2.4,2.2c-0.8,3.3-0.1,3.8-4.5,3c-4.9-0.9-9.2,0-13.3,3.1
	c-2.1,1.6-4.5,3-7,3.7c-4.2,1.3-8.5,1-12.4-1.3c-1.3-0.7-2.6-1.5-3.7-2.4c-4.1-3.4-8.8-4-13.9-2.9c-2.9,0.6-3.1,0.5-3.6-2.4
	c-0.3-1.9-1-2.9-3.1-3.1c-1.9-0.2-3.7-0.8-5.5-1.5c-0.9-0.3-1.7-0.8-2.4-1.5c-1.1-1-0.8-2,0.6-2.4c8.3-1.9,12.3-6.4,15.7-13.8
	c1.1-2.3,0.8-3.6-1.5-4.8c-0.8-0.4-2.1-1-3-1.3c-1.1-0.5-1.9-0.7-3-1.3C7.5,36.2,7.2,34,9,32.4c2.5-2.2,4.8-0.3,7.5,0
	c2.4,0.3,2.9-0.3,2.7-2.7c-0.1-1.8-0.2-3.6-0.3-5.8c-0.1-4.3-0.2-9,2.4-13.3c3.9-6.5,9.6-9.8,17-10.5c3.7-0.3,7.4,0,11.1,1.2
	C55.8,3.5,63,10.2,62.9,20c0,3.5-0.2,7-0.4,10.6c-0.1,1.3,0.5,1.9,1.6,1.8c2.5-0.2,5-1.4,7.5-0.7c2.1,0.6,3.3,3.7,1.3,5.3
	c-1.1,0.8-2.4,1.4-3.6,2c-1.2,0.6-2.6,0.9-3.8,1.6c-1.9,1-2,3-1.1,4.9c3.3,7.5,7.4,11,15.7,13.1c0.6,0.1,1.5,0.7,1.5,0.9
	C81.4,60.2,81.1,61.2,80.6,61.4z"/>
</svg>
