<?xml version="1.0" encoding="utf-8"?>
<!-- Generator: Adobe Illustrator 26.0.2, SVG Export Plug-In . SVG Version: 6.00 Build 0)  -->
<svg version="1.1" id="Livello_1" xmlns="http://www.w3.org/2000/svg" xmlns:xlink="http://www.w3.org/1999/xlink" x="0px" y="0px"
	 viewBox="0 0 73.7 73.7" style="enable-background:new 0 0 73.7 73.7;" xml:space="preserve">
<style type="text/css">
	.st0{fill:#FFFFFF;}
</style>
<g>
	<circle class="st0" cx="56.5" cy="17.2" r="4.4"/>
	<path class="st0" d="M73.5,21.7c-0.2-3.9-0.8-6.6-1.7-8.9c-0.9-2.4-2.2-4.5-4.3-6.5c-2-2-4.1-3.3-6.5-4.3s-5-1.6-9-1.8
		C48.1,0,46.9,0,36.8,0S25.6,0,21.7,0.2S15.1,1,12.8,1.9c-2.4,0.9-4.5,2.2-6.5,4.3c-2,2-3.3,4.1-4.3,6.5c-0.9,2.3-1.5,5-1.7,8.9
		C0,25.6,0,26.8,0,36.8S0,48.1,0.2,52c0.2,4,0.8,6.6,1.7,9s2.2,4.5,4.3,6.5c2,2,4.1,3.3,6.5,4.3c2.3,0.9,5,1.5,8.9,1.7
		s5.2,0.2,15.2,0.2s11.3,0,15.2-0.2s6.6-0.8,8.9-1.7c2.4-0.9,4.5-2.2,6.5-4.3c2-2,3.3-4.1,4.3-6.5c0.9-2.3,1.5-5,1.7-8.9
		s0.2-5.2,0.2-15.2S73.7,25.6,73.5,21.7z M66.8,51.7c-0.2,3.6-0.8,5.5-1.3,6.8c-0.7,1.7-1.5,2.9-2.8,4.2s-2.5,2.1-4.2,2.8
		c-1.3,0.5-3.2,1.1-6.8,1.3C47.8,67,46.6,67,36.8,67s-11,0-14.9-0.2c-3.6-0.2-5.5-0.8-6.8-1.3c-1.7-0.7-2.9-1.5-4.2-2.8
		s-2.1-2.5-2.8-4.2c-0.5-1.3-1.1-3.2-1.3-6.8c-0.2-3.9-0.2-5.1-0.2-14.9s0-11,0.2-14.9c0.2-3.6,0.8-5.5,1.3-6.8
		c0.7-1.7,1.5-2.9,2.8-4.2s2.5-2.1,4.2-2.8C16.4,7.6,18.4,7,22,6.9c3.9-0.2,5.1-0.2,14.9-0.2s11,0,14.9,0.2c3.6,0.2,5.5,0.8,6.8,1.3
		c1.7,0.7,2.9,1.5,4.2,2.8c1.3,1.3,2.1,2.5,2.8,4.2c0.5,1.3,1.1,3.2,1.3,6.8c0.2,3.9,0.2,5.1,0.2,14.9C67.1,46.7,67,47.9,66.8,51.7z
		"/>
	<g>
		<path class="st0" d="M36.8,22.9L36.8,22.9c6.5,0,12,4.4,13.5,10.7c0.9,3.6,0.2,7.3-1.7,10.5c-2,3.2-5,5.4-8.6,6.2
			c-1.1,0.2-2.1,0.4-3.2,0.4c-6.5,0-12-4.4-13.5-10.7c-0.9-3.6-0.2-7.3,1.7-10.5s5-5.4,8.6-6.2C34.7,23,35.7,22.9,36.8,22.9
			 M36.8,17.9c-1.4,0-2.9,0.2-4.4,0.5C22.3,20.8,16,31,18.4,41.2c2.1,8.7,9.8,14.6,18.4,14.6c1.4,0,2.9-0.2,4.4-0.5
			c10.2-2.4,16.4-12.6,14.1-22.7C53.1,23.8,45.4,17.9,36.8,17.9L36.8,17.9z"/>
	</g>
</g>
</svg>
