<?xml version="1.0" encoding="utf-8"?>
<!-- Generator: Adobe Illustrator 26.0.2, SVG Export Plug-In . SVG Version: 6.00 Build 0)  -->
<svg version="1.1" id="Livello_1" xmlns="http://www.w3.org/2000/svg" xmlns:xlink="http://www.w3.org/1999/xlink" x="0px" y="0px"
	 viewBox="0 0 70 60" style="enable-background:new 0 0 70 60;" xml:space="preserve">
<style type="text/css">
	.st0{fill:#FFFFFF;}
</style>
<path class="st0" d="M67.3,11.9c-1.5,1.2-4,2.5-4,2.5s1.5,8.3-2.5,17.9c-4,9.6-8.8,15.8-21.1,22.5c-12.3,6.7-20.5,5.5-26.1,4.4
	C7.9,58,4.4,56.4,0,53.1c0,0,7.4-0.4,10.7-1.7c4.1-1.5,9.4-5.2,9.4-5.2s-3.3-0.6-7.5-3.1c-4.2-2.5-5.6-6.7-5.6-6.7l6.5-0.6
	c0,0-4.4-1.5-8.6-5.6c-4.2-4.2-3.3-9-3.3-9s1.5,0.8,2.9,1.3c1.5,0.4,3.8,0,3.8,0s-5.4-3.1-6.3-9.6C1.1,6.5,3.6,3.1,3.6,3.1
	s6.5,7.1,13,10.6c7.3,4,17.8,4.6,17.8,4.6S33.3,3.8,44.9,0.6c9.8-2.7,14.4,4,14.4,4s1.9,0,4-0.6c2.1-0.6,5-2.1,5-2.1s0,1-0.6,2.3
	c-0.6,1.2-1.9,2.5-2.5,3.1c-0.6,0.6-2.7,1.9-2.7,1.9s1.5,0.4,3.1,0.2C67.3,9.2,70,8.6,70,8.6S68.7,10.6,67.3,11.9z"/>
</svg>
